<mxfile host="app.diagrams.net" modified="2024-06-27T15:13:12.143Z" agent="Mozilla/5.0 (X11; Ubuntu; Linux x86_64; rv:127.0) Gecko/20100101 Firefox/127.0" version="24.6.3" etag="1q95IQS1diA4crzUq3Oe" type="github">
  <diagram name="Page-1" id="kBxtzO98RSqXOl2AmwRp">
    <mxGraphModel>
      <root>
        <mxCell id="0" />
        <mxCell id="1" parent="0" />
      </root>
    </mxGraphModel>
  </diagram>
</mxfile>
